<?xml version="1.0" encoding="utf-8"?>
<!-- Generator: Adobe Illustrator 16.0.4, SVG Export Plug-In . SVG Version: 6.00 Build 0)  -->
<!DOCTYPE svg PUBLIC "-//W3C//DTD SVG 1.1//EN" "http://www.w3.org/Graphics/SVG/1.1/DTD/svg11.dtd">
<svg version="1.1" id="Ebene_1" xmlns="http://www.w3.org/2000/svg" xmlns:xlink="http://www.w3.org/1999/xlink" x="0px" y="0px"
	 width="420.945px" height="314px" viewBox="0 0 420.945 314" enable-background="new 0 0 420.945 314" xml:space="preserve">
<g>
	<path fill="transparent" d="M0,195.153C0,115.204,0,35.255,0-44.694c139.802,0,279.604,0,419.405,0c0,79.774,0,159.549,0,239.323
		c-0.078-0.423-0.183-0.844-0.231-1.271c-0.385-3.425-0.592-6.879-1.165-10.272c-3.355-19.878-11.73-37.399-25.343-52.263
		c-19.074-20.825-42.806-32.282-70.968-34.5c-0.895-0.07-1.258-0.442-1.61-1.191c-2.336-4.971-4.488-10.047-7.134-14.85
		c-26.04-47.283-76.298-76.667-131.962-72.077c-14.339,1.182-28.211,4.368-41.375,10.146
		c-39.193,17.205-65.245,46.476-79.065,86.826c-0.335,0.979-0.82,1.601-1.76,2.069c-15.758,7.862-28.918,18.839-39.287,33.087
		c-10.322,14.185-16.63,29.984-18.742,47.424C0.465,190.219,0.252,192.688,0,195.153z"/>
	<path clip-rule="evenodd" fill="#393939" d="M1,195.153c0.252-2.466,0.465-4.935,0.763-7.396
		c2.112-17.439,8.42-33.239,18.742-47.424c10.369-14.248,23.529-25.225,39.287-33.087c0.939-0.469,1.425-1.09,1.76-2.069
		c13.82-40.351,39.872-69.621,79.065-86.826c13.164-5.778,27.036-8.965,41.375-10.146c55.664-4.59,105.922,24.794,131.962,72.077
		c2.646,4.803,4.798,9.879,7.134,14.85c0.353,0.749,0.716,1.121,1.61,1.191c28.162,2.218,51.894,13.675,70.968,34.5
		c13.612,14.863,21.987,32.385,25.343,52.263c0.573,3.394,0.78,6.848,1.165,10.272c0.049,0.427,0.153,0.848,0.231,1.271
		c0,3.495,0,6.99,0,10.485c-0.077,0.465-0.198,0.926-0.224,1.393c-0.424,7.526-1.71,14.91-3.793,22.146
		c-12.878,44.721-54.125,76.269-101.311,76.173c-69.584-0.143-139.168-0.041-208.752-0.03c-7.097,0.002-14.139-0.566-21.078-2.05
		c-28.676-6.129-51.123-21.493-67.312-45.886c-8.978-13.526-14.298-28.469-16.186-44.61c-0.278-2.376-0.501-4.757-0.75-7.135
		C1,201.794,1,198.474,1,195.153z M297.613,131.3c-0.197-0.638-0.328-1.049-0.451-1.461c-1.476-4.975-2.845-9.984-4.442-14.92
		c-16.19-49.986-67.734-80.741-119.046-70.306c-38.057,7.74-64.048,30.504-78.301,66.532c-2.425,6.129-3.748,12.698-5.496,19.087
		c-0.3,1.098-0.772,1.683-1.851,2.036c-2.07,0.678-4.088,1.515-6.131,2.277c-32.526,12.146-50.828,44.201-44.748,78.378
		c5.755,32.345,34.542,56.832,67.42,56.89c70.556,0.123,141.111,0.066,211.667-0.019c4.51-0.005,9.101-0.49,13.513-1.421
		c30.368-6.402,52.103-30.521,55.312-61.341c1.63-15.662-1.581-30.379-9.927-43.751c-11.517-18.453-28.235-29.22-49.715-32.52
		c-3.134-0.481-6.357-0.685-9.525-0.578C309.834,130.387,303.787,130.905,297.613,131.3z"/>
	<path clip-rule="evenodd" fill="transparent" d="M0,205.114c0.249,2.378,0.472,4.759,0.75,7.135
		c1.888,16.142,7.208,31.084,16.186,44.61c16.189,24.393,38.637,39.757,67.312,45.886c6.939,1.483,13.981,2.052,21.078,2.05
		c69.584-0.011,139.168-0.112,208.752,0.03c47.186,0.096,88.433-31.452,101.311-76.173c2.083-7.235,3.369-14.619,3.793-22.146
		c0.025-0.467,0.146-0.928,0.224-1.393c0,56.522,0,113.045,0,169.582c-139.802,0-279.604,0-419.405,0C0,318.159,0,261.637,0,205.114
		z"/>
	<path clip-rule="evenodd" fill="transparent" d="M296.613,131.3c6.174-0.395,12.221-0.913,18.278-1.115
		c3.168-0.106,6.392,0.097,9.525,0.578c21.479,3.3,38.198,14.066,49.715,32.52c8.346,13.372,11.557,28.089,9.927,43.751
		c-3.209,30.82-24.943,54.938-55.312,61.341c-4.412,0.931-9.003,1.416-13.513,1.421c-70.556,0.085-141.111,0.142-211.667,0.019
		c-32.878-0.058-61.665-24.545-67.42-56.89c-6.08-34.177,12.222-66.232,44.748-78.378c2.043-0.763,4.061-1.6,6.131-2.277
		c1.078-0.354,1.551-0.938,1.851-2.036c1.748-6.389,3.071-12.958,5.496-19.087c14.253-36.028,40.244-58.792,78.301-66.532
		c51.312-10.436,102.855,20.319,119.046,70.306c1.598,4.936,2.967,9.945,4.442,14.92C296.285,130.251,296.416,130.662,296.613,131.3
		z M240.277,164.999c-16.104-21.96-32.027-43.674-48.05-65.522c-16.017,21.842-31.967,43.592-48.112,65.61
		c10.442,0,20.505,0,30.726,0c0,23.338,0,46.542,0,69.736c11.705,0,23.25,0,34.92,0c0-23.319,0-46.532,0-69.824
		C219.918,164.999,229.948,164.999,240.277,164.999z"/>
	<path clip-rule="evenodd" fill="#393939" d="M240.277,164.999c-10.329,0-20.359,0-30.517,0c0,23.292,0,46.505,0,69.824
		c-11.67,0-23.215,0-34.92,0c0-23.194,0-46.398,0-69.736c-10.221,0-20.283,0-30.726,0c16.146-22.019,32.096-43.769,48.112-65.61
		C208.25,121.325,224.173,143.039,240.277,164.999z"/>
</g>
</svg>
