<?xml version="1.0" encoding="utf-8"?>
<!-- Generator: Adobe Illustrator 15.1.0, SVG Export Plug-In . SVG Version: 6.00 Build 0)  -->
<!DOCTYPE svg PUBLIC "-//W3C//DTD SVG 1.0//EN" "http://www.w3.org/TR/2001/REC-SVG-20010904/DTD/svg10.dtd">
<svg version="1.0" id="Ebene_1" xmlns="http://www.w3.org/2000/svg" xmlns:xlink="http://www.w3.org/1999/xlink" x="0px" y="0px"
	 width="372.7753906px" height="88.4819336px" viewBox="0 0 372.7753906 88.4819336"
	 enable-background="new 0 0 372.7753906 88.4819336" xml:space="preserve">
<polygon fill="#308097" points="67.8007812,58.0151367 2.1035156,58.0151367 28.8417969,34.4487305 2.1035156,11.7504883 
	60.9067383,11.7504883 "/>
<polygon fill="#2D8097" points="290.9462891,21.9052734 291.3007812,1.5952148 373.1845703,1.5952148 331.7832031,20.8061523 
	370.8330078,42.5874023 293.8740234,42.5874023 290.9462891,26.0932617 "/>
<polygon fill="#226271" points="311.0644531,20.8066406 291.2998047,1.5957031 290.9453125,26.09375 "/>
<polygon fill="#226271" points="60.9072266,11.7504883 48.6201172,34.0473633 64.5131836,35.9506836 "/>
<polygon fill="#3695B7" points="48.6206055,34.0473633 311.0644531,20.8061523 296.3525391,86.9936523 63.9926758,86.9936523 "/>
<g>
	<rect x="98.4301758" y="33.5083008" fill="none" width="275.9165039" height="96.8583984"/>
	<path fill="#FFFFFF" d="M105.0302734,70.347168c0,1.1611328,0.1293945,2.0605469,0.3901367,2.7011719
		c0.2592773,0.6396484,0.5893555,1.1191406,0.9897461,1.4394531c0.3994141,0.3203125,0.8398438,0.5097656,1.3198242,0.5703125
		c0.4799805,0.0595703,0.9599609,0.0898438,1.4404297,0.0898438c0.5996094,0,1.1396484-0.0097656,1.6196289-0.0302734
		c0.4799805-0.0195312,0.8193359-0.0693359,1.0200195-0.1494141v1.1992188
		c-0.3598633,0.0410156-0.7104492,0.0800781-1.0498047,0.1201172c-0.340332,0.0400391-0.9702148,0.0595703-1.8901367,0.0595703
		c-1.4003906,0-2.590332-0.4091797-3.5698242-1.2294922c-0.980957-0.8193359-1.4702148-2.3291016-1.4702148-4.5302734V46.7075195
		h-5.6401367v-1.199707h5.6401367v-9.7202148h1.2001953v9.7202148h6.9599609v1.199707h-6.9599609V70.347168z"/>
	<path fill="#FFFFFF" d="M135.5703125,50.6674805c-0.4799805-1.0800781-1.1606445-1.9697266-2.0400391-2.6699219
		c-0.8803711-0.6992188-1.9306641-1.2089844-3.1499023-1.5292969c-1.2207031-0.3203125-2.5708008-0.4804688-4.050293-0.4804688
		c-2.1601562,0-3.8603516,0.2910156-5.1000977,0.8691406c-1.2402344,0.5810547-2.159668,1.2412109-2.7597656,1.9804688
		c-0.6000977,0.7402344-0.9804688,1.4707031-1.1401367,2.1904297c-0.1601562,0.7197266-0.2397461,1.2197266-0.2397461,1.5
		c0,1.5205078,0.309082,2.6904297,0.9296875,3.5097656c0.6196289,0.8203125,1.449707,1.4501953,2.4902344,1.8896484
		c1.0800781,0.4414062,2.25,0.8203125,3.5097656,1.140625c1.2602539,0.3203125,2.7299805,0.7001953,4.4101562,1.1396484
		c1.2001953,0.3212891,2.3896484,0.6513672,3.5698242,0.9902344c1.1796875,0.3408203,2.2397461,0.8095703,3.1801758,1.4091797
		c0.9394531,0.6005859,1.699707,1.3613281,2.2797852,2.28125c0.5795898,0.9199219,0.8701172,2.1201172,0.8701172,3.5996094
		c0,1.5605469-0.3300781,2.8798828-0.9897461,3.9599609c-0.6601562,1.0800781-1.5209961,1.9599609-2.5800781,2.6396484
		c-1.0605469,0.6806641-2.2602539,1.1699219-3.6000977,1.4707031c-1.3408203,0.2988281-2.6699219,0.4492188-3.9902344,0.4492188
		c-4.1201172,0-7.2299805-0.9003906-9.3295898-2.6992188c-2.1000977-1.8007812-3.1503906-4.640625-3.1503906-8.5205078h1.2001953
		c0,3.4794922,0.9692383,6.0302734,2.9101562,7.6494141c1.9394531,1.6210938,4.7294922,2.4306641,8.3696289,2.4306641
		c1.1196289,0,2.2700195-0.1298828,3.4501953-0.3896484c1.1791992-0.2597656,2.25-0.6796875,3.2099609-1.2597656
		s1.7495117-1.3300781,2.3701172-2.25c0.6196289-0.9199219,0.9301758-2.0410156,0.9301758-3.3613281
		c0-1.359375-0.3105469-2.4589844-0.9301758-3.2988281c-0.6206055-0.8398438-1.4204102-1.5302734-2.3999023-2.0703125
		c-0.980957-0.5400391-2.1103516-0.9697266-3.3901367-1.2900391c-1.2807617-0.3193359-2.5800781-0.6396484-3.8999023-0.9599609
		c-1.4804688-0.3603516-2.7807617-0.6992188-3.8999023-1.0195312c-1.1206055-0.3203125-2.1206055-0.6796875-3-1.0800781
		c-1.2807617-0.5605469-2.2202148-1.3398438-2.8203125-2.3398438s-0.8999023-2.3408203-0.8999023-4.0205078
		c0-0.8408203,0.1801758-1.7197266,0.5400391-2.6396484s0.9599609-1.7597656,1.7998047-2.5205078
		c0.840332-0.7587891,1.9199219-1.3798828,3.2402344-1.8598633c1.3198242-0.4799805,2.9399414-0.7202148,4.8598633-0.7202148
		c3.4399414,0,6.159668,0.7802734,8.1601562,2.3398438c1.9995117,1.5595703,3,4.0605469,3,7.5h-1.2001953
		C136.2900391,53.0678711,136.050293,51.7475586,135.5703125,50.6674805z"/>
	<path fill="#FFFFFF" d="M167.5498047,70.4975586c-0.6806641,1.3798828-1.5703125,2.5507812-2.6699219,3.5097656
		c-1.1005859,0.9609375-2.3803711,1.7011719-3.8398438,2.2207031c-1.4609375,0.5195312-3.0703125,0.7792969-4.8300781,0.7792969
		c-2.2001953,0-4.1503906-0.4101562-5.8500977-1.2294922c-1.7006836-0.8193359-3.1303711-1.9296875-4.2900391-3.3300781
		c-1.1606445-1.3994141-2.0400391-3.0302734-2.6401367-4.8896484c-0.5996094-1.8603516-0.8999023-3.8496094-0.8999023-5.9707031
		c0-2.2392578,0.2900391-4.3691406,0.8701172-6.3896484c0.5795898-2.0195312,1.4594727-3.7998047,2.6401367-5.3408203
		c1.1791992-1.5390625,2.6791992-2.7685547,4.5-3.6894531c1.8193359-0.9194336,3.949707-1.3798828,6.3896484-1.3798828
		c1.4404297,0,2.8203125,0.2202148,4.1401367,0.6601562c1.3203125,0.4404297,2.4995117,1.0800781,3.5400391,1.9199219
		c1.0395508,0.8398438,1.909668,1.8896484,2.6098633,3.1494141c0.699707,1.2607422,1.1494141,2.7109375,1.3500977,4.3505859
		h-1.199707c-0.2402344-1.5195312-0.6806641-2.8291016-1.3203125-3.9306641
		c-0.6401367-1.0996094-1.4204102-2.0185547-2.3398438-2.7597656c-0.9208984-0.7392578-1.9604492-1.2890625-3.1201172-1.6494141
		c-1.1606445-0.3603516-2.3803711-0.5400391-3.6601562-0.5400391c-2.4399414,0-4.5102539,0.4707031-6.2099609,1.4101562
		c-1.7001953,0.9394531-3.0595703,2.1601562-4.0795898,3.6601562s-1.7607422,3.1796875-2.2202148,5.0390625
		c-0.4604492,1.8603516-0.6899414,3.6904297-0.6899414,5.4902344c0,1.8808594,0.2700195,3.6806641,0.8100586,5.4003906
		c0.5400391,1.7207031,1.3291016,3.2402344,2.3701172,4.5605469c1.0395508,1.3193359,2.3398438,2.3691406,3.8999023,3.1494141
		s3.3598633,1.1699219,5.3999023,1.1699219c1.5195312,0,2.9399414-0.2294922,4.2597656-0.6904297
		c1.3203125-0.4589844,2.4902344-1.1289062,3.5102539-2.0097656c1.0200195-0.8789062,1.8496094-1.9296875,2.4897461-3.1503906
		c0.6396484-1.21875,1.0200195-2.609375,1.1401367-4.1699219h1.2001953
		C168.6494141,67.5678711,168.2294922,69.1176758,167.5498047,70.4975586z"/>
	<path fill="#FFFFFF" d="M175.1699219,33.5078125v19.6196289h0.1201172
		c0.2792969-1.2001953,0.7294922-2.2998047,1.3500977-3.2998047c0.6196289-1,1.3994141-1.8798828,2.3398438-2.640625
		c0.9394531-0.7587891,2.0297852-1.3496094,3.2700195-1.7695312c1.2392578-0.4199219,2.6191406-0.6298828,4.1401367-0.6298828
		c1.5991211,0,3.0688477,0.2402344,4.409668,0.7202148c1.3398438,0.4799805,2.4990234,1.190918,3.4794922,2.1303711
		s1.7402344,2.0996094,2.28125,3.4794922c0.5390625,1.3798828,0.8095703,2.9697266,0.8095703,4.7705078V76.347168h-1.2001953
		V56.0678711c0-1.8007812-0.2607422-3.3300781-0.7792969-4.5898438c-0.5214844-1.2597656-1.2304688-2.3007812-2.1308594-3.1210938
		c-0.9003906-0.8183594-1.9404297-1.4179688-3.1191406-1.7988281c-1.1816406-0.3808594-2.4306641-0.5703125-3.7504883-0.5703125
		c-1.840332,0-3.4604492,0.3505859-4.8603516,1.0498047c-1.4003906,0.7001953-2.5703125,1.640625-3.5097656,2.8193359
		c-0.9404297,1.1816406-1.6499023,2.5507812-2.1298828,4.1113281c-0.4799805,1.5595703-0.7202148,3.2001953-0.7202148,4.9199219
		V76.347168h-1.2001953V33.5078125H175.1699219z"/>
	<path fill="#FFFFFF" d="M204.8105469,50.9975586c0.5185547-1.2597656,1.2685547-2.3496094,2.25-3.2695312
		c0.9785156-0.9199219,2.1796875-1.640625,3.5996094-2.1601562c1.4189453-0.5195312,3.0898438-0.7802734,5.0097656-0.7802734
		c1.359375,0,2.6494141,0.140625,3.8701172,0.4199219c1.2197266,0.2802734,2.2890625,0.7705078,3.2099609,1.4697266
		c0.9199219,0.7011719,1.6591797,1.6113281,2.2197266,2.7304688c0.5595703,1.1201172,0.8603516,2.5195312,0.9003906,4.1992188
		v19.6210938c0,0.5996094,0.1201172,1.0400391,0.3603516,1.3203125c0.2392578,0.2792969,0.5585938,0.4697266,0.9589844,0.5693359
		c0.4003906,0.1005859,0.8300781,0.140625,1.2910156,0.1201172c0.4589844-0.0195312,0.8886719-0.0498047,1.2890625-0.0898438
		v1.1992188h-1.7998047c-0.8798828,0-1.6494141-0.2089844-2.3095703-0.6289062s-0.9902344-1.2099609-0.9902344-2.3710938v-4.0195312
		h-0.1201172c-0.3203125,1-0.8310547,1.9609375-1.5302734,2.8798828c-0.6992188,0.9208984-1.5800781,1.7402344-2.6396484,2.4599609
		c-1.0595703,0.7207031-2.2705078,1.2900391-3.6298828,1.7099609c-1.3603516,0.4208984-2.8408203,0.6298828-4.4394531,0.6298828
		c-3.1210938,0-5.6210938-0.6894531-7.5-2.0703125c-1.8808594-1.3789062-2.8203125-3.4492188-2.8203125-6.2089844
		c0-1.9199219,0.3085938-3.4599609,0.9296875-4.6210938c0.6191406-1.1591797,1.4296875-2.0693359,2.4296875-2.7294922
		c1-0.6591797,2.1396484-1.1191406,3.4199219-1.3798828c1.2802734-0.2597656,2.5595703-0.4296875,3.8398438-0.5097656
		c2.1201172-0.1201172,3.9394531-0.2304688,5.4609375-0.3300781c1.5195312-0.0996094,2.7695312-0.3007812,3.75-0.5996094
		c0.9794922-0.3007812,1.6992188-0.7597656,2.1601562-1.3808594c0.4589844-0.6191406,0.6894531-1.5087891,0.6894531-2.6699219
		c0-0.9199219-0.0800781-1.8789062-0.2402344-2.8798828c-0.1601562-0.9990234-0.5507812-1.9199219-1.1699219-2.7597656
		c-0.6210938-0.8398438-1.5292969-1.5302734-2.7304688-2.0693359c-1.1992188-0.5410156-2.8193359-0.8105469-4.859375-0.8105469
		c-3.2402344,0-5.7597656,0.7900391-7.5605469,2.3691406c-1.7988281,1.5820312-2.7998047,3.8105469-3,6.6914062h-1.1992188
		C203.9902344,53.6069336,204.2890625,52.2573242,204.8105469,50.9975586z M224.5498047,58.2280273
		c-0.4003906,0.5605469-1.0205078,0.9902344-1.8603516,1.2890625c-0.8398438,0.3007812-1.7988281,0.53125-2.8789062,0.6904297
		c-1.0800781,0.1611328-2.25,0.2607422-3.5107422,0.2998047c-1.2597656,0.0410156-2.4892578,0.1005859-3.6904297,0.1796875
		c-1.1992188,0.0810547-2.3691406,0.2314453-3.5097656,0.4511719c-1.1396484,0.2197266-2.1503906,0.6201172-3.0292969,1.1992188
		c-0.8808594,0.5800781-1.5810547,1.3808594-2.1005859,2.4003906c-0.5205078,1.0195312-0.7802734,2.3496094-0.7802734,3.9902344
		c0,0.8798828,0.1503906,1.75,0.4511719,2.609375c0.2988281,0.8613281,0.8085938,1.6201172,1.5292969,2.2802734
		s1.6503906,1.2001953,2.7900391,1.6201172s2.5498047,0.6298828,4.2294922,0.6298828c2,0,3.7802734-0.3388672,5.3398438-1.0205078
		c1.5605469-0.6796875,2.8701172-1.5683594,3.9306641-2.6699219c1.0595703-1.0996094,1.8603516-2.3691406,2.3994141-3.8095703
		c0.5410156-1.4404297,0.8105469-2.9189453,0.8105469-4.4404297v-5.6992188H224.5498047z"/>
	<path fill="#FFFFFF" d="M234.0292969,76.347168h-1.2001953V33.5078125h1.2001953v29.699707l21.2998047-17.699707h1.7402344
		l-14.1601562,11.7592773l15.1806641,19.0800781H256.46875l-14.4589844-18.2402344l-7.9804688,6.6005859V76.347168z"/>
	<path fill="#FFFFFF" d="M259.46875,39.5678711v-6.0600586h1.1992188v6.0600586H259.46875z M259.46875,76.347168V45.5078125
		h1.1992188V76.347168H259.46875z"/>
</g>
<g>
</g>
</svg>
